# xmcd
#
# Track frame offsets:
#	150
#	12922
#	27471
#	37371
#	49119
#	59431
#	77033
#	92154
#	109168
#	125432
#	137615
#	148534
#	163689
#
# Disc length: 2383 seconds
# Revision: 0
# Processed by: cddbd v1.5.1PL0 Copyright (c) Steve Scherf et al.
# Submitted via: cdrLabel 7.1
#
DISCID=b6094d0d
DTITLE=Patty Loveless - Bluegrass and White Snow 
DYEAR=1900
DGENRE=
TTITLE0=Away In A Manger
TTITLE1=Silent Night
TTITLE2=Joy To The World
TTITLE3=Carol Of The Bells
TTITLE4=The First Noel
TTITLE5=Little Drummer Boy
TTITLE6=Silver Bells
TTITLE7=O Little Town Of Bethlehem
TTITLE8=Christmas Time's A Comin'
TTITLE9=Santa Train
TTITLE10=Christmas Day At My House
TTITLE11=Beautiful Star Of Bethlehem
TTITLE12=Bluegrass, White Snow
EXTD=
EXTT0=
EXTT1=
EXTT2=
EXTT3=
EXTT4=
EXTT5=
EXTT6=
EXTT7=
EXTT8=
EXTT9=
EXTT10=
EXTT11=
EXTT12=
PLAYORDER=
